<svg fill="none" height="1642" viewBox="0 0 1642 1642" width="1642" xmlns="http://www.w3.org/2000/svg"><g fill="#f3eee8"><path d="m821.001 821.001-436.833 561.199c-34.359 38.49-94.653 39.52-129.597 3.73-34.402-35.23-32.665-94.29 5.229-128.1 187.066-145.61 374.134-291.218 561.201-436.829z"/><path d="m821 821.001-705.717 87.942c-51.5109 2.921-94.8729-38.986-94.2769-89.001.586-49.238 43.577-89.772 94.2769-86.882 235.239 29.313 470.478 58.627 705.717 87.941z"/><path d="m820.999 821.001-561.201-436.833c-38.489-34.359-39.518-94.653-3.731-129.597 35.231-34.402 94.292-32.665 128.099 5.229 145.612 187.066 291.222 374.134 436.833 561.201z"/><path d="m821 821-87.942-705.717c-2.921-51.5109 38.986-94.8729 89.001-94.2769 49.238.586 89.772 43.577 86.882 94.2769-29.313 235.239-58.627 470.478-87.941 705.717z"/><path d="m821 820.999 436.83-561.201c34.36-38.489 94.66-39.518 129.6-3.731 34.4 35.231 32.67 94.292-5.23 128.099-187.06 145.612-374.13 291.222-561.2 436.833z"/><path d="m821 820.999 705.72-87.942c51.51-2.921 94.87 38.986 94.27 89.001-.58 49.238-43.57 89.772-94.27 86.882-235.24-29.313-470.48-58.627-705.72-87.941z"/><path d="m821 820.999 561.2 436.831c38.49 34.36 39.52 94.66 3.73 129.6-35.23 34.4-94.29 32.67-128.1-5.23-145.61-187.07-291.219-374.13-436.83-561.201z"/><path d="m821.001 821 87.942 705.72c2.921 51.51-38.986 94.87-89.001 94.27-49.238-.58-89.772-43.57-86.882-94.27 29.313-235.24 58.627-470.48 87.941-705.72z"/></g></svg>