<svg width="354" height="266" viewBox="0 0 354 266" fill="none" xmlns="http://www.w3.org/2000/svg">
<path d="M44.25 0C34.5593 0 26.8597 0.862875 20.3992 3.2745C13.9387 5.70825 8.7615 10.1333 5.70825 15.6866C-0.420376 26.7934 0.22125 40.3339 0 58.8968V206.603C0.22125 225.166 -0.420376 238.707 5.70825 249.813C8.7615 255.367 13.9387 259.77 20.3992 262.203C26.8597 264.637 34.5593 265.5 44.25 265.5H309.75C319.463 265.5 327.14 264.637 333.601 262.226C340.083 259.792 345.283 255.367 348.336 249.813C354.465 238.707 353.779 225.166 354 206.603V58.8968C353.779 40.3339 354.465 26.7934 348.336 15.6866C345.054 9.93533 339.83 5.54235 333.601 3.29662C327.14 0.862873 319.441 0 309.75 0H44.25ZM44.25 22.125H309.75C318.157 22.125 323.158 22.9879 325.835 23.9835C327.671 24.6694 328.645 25.7535 328.977 26.3509C331.079 30.1564 331.632 39.9578 331.875 58.941V206.603C331.654 225.52 331.078 235.344 328.999 239.127C328.247 240.26 327.131 241.103 325.835 241.517C323.158 242.512 318.157 243.375 309.75 243.375H44.25C35.8425 243.375 30.8423 242.512 28.1873 241.517C26.8999 241.122 25.7944 240.283 25.0676 239.149C22.9436 235.299 22.3462 225.498 22.125 206.603V58.941C22.3462 40.002 22.9436 30.2006 25.0676 26.3509C25.7889 25.2214 26.8859 24.383 28.1651 23.9835C30.8423 22.9879 35.8646 22.125 44.25 22.125ZM56.1311 57.0383L49.8255 66.729L179.766 160.097L309.75 66.375L303.444 57.0383L179.766 131.666L56.1311 57.0383Z" fill="#EDE6DD"/>
</svg>
