<svg width="173" height="129" viewBox="0 0 173 129" fill="none" xmlns="http://www.w3.org/2000/svg">
<g clip-path="url(#clip0_467_208)">
<path fill-rule="evenodd" clip-rule="evenodd" d="M71.7243 11.5565C44.2639 19.2147 26.403 35.2348 21.9631 63.1143C20.7535 70.6978 22.4429 64.9703 27.5552 61.1225C44.247 48.5457 77.0663 53.0054 81.6177 81.7041C90.7813 132.518 27.6262 141.314 8.93408 113.251C4.46575 106.508 1.63688 98.8022 0.676033 90.756C-3.83481 54.3854 14.6917 21.9952 47.2374 6.79773C53.393 3.92599 59.8252 1.69697 66.4329 0.145654C69.8524 -0.53417 72.3359 1.32175 73.4813 4.48973C74.4511 7.20902 74.7822 10.1731 71.7243 11.5497V11.5565ZM162.205 11.5565C134.751 19.2215 116.88 35.2416 112.44 63.1211C111.23 70.7046 112.92 64.9771 118.032 61.1293C134.724 48.5525 167.543 53.0122 172.095 81.7109C181.265 132.524 118.107 141.321 99.4144 113.258C94.9427 106.514 92.1115 98.8051 91.1496 90.756C86.6455 54.3854 105.172 21.9952 137.718 6.79773C143.873 3.92548 150.305 1.69644 156.913 0.145654C160.333 -0.53417 162.816 1.32175 163.962 4.48973C164.931 7.19203 165.263 10.1731 162.205 11.5565Z" fill="#9DC019"/>
</g>
<defs>
<clipPath id="clip0_467_208">
<rect width="173" height="129" fill="white"/>
</clipPath>
</defs>
</svg>
