<svg width="173" height="129" viewBox="0 0 173 129" fill="none" xmlns="http://www.w3.org/2000/svg">
<g clip-path="url(#clip0_467_206)">
<path fill-rule="evenodd" clip-rule="evenodd" d="M101.276 117.289C128.736 109.641 146.597 93.6418 151.037 65.799C152.247 58.2256 150.557 63.9455 145.445 67.7883C128.753 80.3484 95.9337 75.8947 91.3823 47.2337C82.2187 -3.51264 145.374 -12.2979 164.066 15.7282C168.534 22.4624 171.363 30.1583 172.324 38.1938C176.835 74.5164 158.308 106.864 125.763 122.041C119.607 124.909 113.175 127.135 106.567 128.685C103.148 129.364 100.664 127.51 99.5187 124.346C98.5489 121.631 98.2178 118.67 101.276 117.296L101.276 117.289ZM10.7954 117.289C38.249 109.634 56.12 93.635 60.5599 65.7922C61.7696 58.2188 60.0801 63.9387 54.9678 67.7815C38.276 80.3416 5.4567 75.8879 0.905311 47.227C-8.26503 -3.51944 54.8935 -12.3047 73.5856 15.7214C78.0573 22.457 80.8885 30.1553 81.8504 38.1938C86.3545 74.5164 67.8279 106.864 35.2823 122.041C29.1269 124.91 22.6947 127.136 16.0867 128.685C12.6673 129.364 10.1838 127.51 9.03833 124.346C8.06859 121.648 7.73746 118.67 10.7954 117.289Z" fill="#9DC019"/>
</g>
<defs>
<clipPath id="clip0_467_206">
<rect width="173" height="128.83" fill="white" transform="translate(173 128.83) rotate(-180)"/>
</clipPath>
</defs>
</svg>
