<svg width="152" height="152" viewBox="0 0 152 152" fill="none" xmlns="http://www.w3.org/2000/svg">
<path d="M57.6552 128.874C57.2847 128.75 56.9092 128.666 56.5263 128.629C56.1508 128.594 55.7827 128.611 55.4219 128.68C55.0612 128.749 54.7251 128.868 54.4162 129.028C54.1148 129.191 53.8429 129.413 53.5982 129.702C53.3534 129.991 53.1655 130.332 53.0369 130.717C52.8983 131.132 52.8413 131.525 52.8658 131.896C52.9174 132.506 53.2259 133.111 53.784 133.71C54.0235 133.954 54.5248 134.402 55.2977 135.047L55.3027 135.057L55.3101 135.059L55.3175 135.062L55.3224 135.072L55.3298 135.074L55.3348 135.084C56.0139 135.64 56.4534 136.05 56.6534 136.315C57.0238 136.784 57.1298 137.256 56.9591 137.743C56.8502 138.069 56.6673 138.321 56.4028 138.496C56.1458 138.674 55.8493 138.773 55.5281 138.797C55.2069 138.822 54.8685 138.775 54.5276 138.661C54.1126 138.522 53.7125 138.29 53.3125 137.959C52.9124 137.627 52.5643 137.215 52.2557 136.733L51.1213 137.491C51.504 138.071 51.9484 138.566 52.4522 138.981C52.9659 139.391 53.5167 139.691 54.1095 139.888C54.7171 140.091 55.315 140.151 55.903 140.067C56.491 139.984 57.005 139.776 57.44 139.436C57.875 139.095 58.1766 138.66 58.3523 138.134C58.4389 137.875 58.4909 137.62 58.5009 137.368C58.5109 137.116 58.4962 136.889 58.4493 136.684C58.405 136.471 58.326 136.264 58.2026 136.041C58.0792 135.819 57.9533 135.629 57.8274 135.463C57.7014 135.298 57.5385 135.12 57.3335 134.919C57.1286 134.719 56.9458 134.551 56.7853 134.415C56.6248 134.279 56.4248 134.114 56.1852 133.918L56.1729 133.906L56.1655 133.903L56.158 133.901L56.1531 133.891L56.1457 133.889L56.1408 133.879L56.1333 133.876L56.1259 133.874L56.121 133.864L56.1136 133.861L56.1062 133.859L56.1012 133.849L56.0938 133.847L56.0889 133.837L56.0815 133.834L56.0741 133.832L56.0691 133.822L56.0617 133.819L56.0568 133.809L56.0494 133.807L56.042 133.805L56.037 133.795L56.0296 133.792L56.0222 133.79L56.0173 133.78L56.0099 133.777L56.0049 133.767L55.9975 133.765L55.9901 133.763L55.9852 133.753C55.3382 133.224 54.911 132.826 54.706 132.551C54.3678 132.084 54.2816 131.578 54.4647 131.029C54.6354 130.518 54.9765 130.187 55.4756 130.024C55.9747 129.862 56.5553 129.899 57.2222 130.122C57.7706 130.305 58.272 130.604 58.7239 131.027C59.1758 131.449 59.5164 131.958 59.7385 132.551L60.9148 131.816C60.5842 131.079 60.1373 130.469 59.5619 129.972C58.9964 129.47 58.3592 129.109 57.6552 128.874Z" fill="#F3EEE8"/>
<path d="M44.6925 122.541C43.8925 122.038 43.0786 121.747 42.249 121.687C41.4235 121.619 40.6025 121.721 39.7992 122L40.2125 123.294C41.5961 122.826 42.8478 122.95 43.9851 123.665C44.395 123.923 44.7452 124.218 45.0315 124.555C45.3285 124.89 45.5551 125.263 45.7128 125.658C45.8706 126.052 45.9661 126.472 45.9904 126.903C46.0147 127.334 45.9636 127.782 45.833 128.253C45.7064 128.718 45.493 129.175 45.21 129.624C44.7439 130.365 44.193 130.932 43.54 131.324C42.8937 131.721 42.1941 131.908 41.4439 131.897C40.6978 131.88 39.9656 131.65 39.245 131.196C38.6962 130.851 38.2529 130.396 37.9152 129.833C37.5774 129.27 37.3658 128.638 37.2868 127.942L35.9455 128.123C36.0272 128.756 36.1835 129.343 36.4318 129.887C36.6802 130.431 36.9809 130.907 37.3316 131.303C37.6865 131.692 38.0879 132.037 38.5375 132.32C39.1458 132.703 39.7553 132.967 40.375 133.126C40.9989 133.279 41.5942 133.33 42.1583 133.27C42.7333 133.207 43.2778 133.061 43.8003 132.817C44.3294 132.578 44.8149 132.247 45.2593 131.834C45.7036 131.421 46.0985 130.941 46.4398 130.398C46.8268 129.784 47.1054 129.165 47.2688 128.539C47.4365 127.906 47.4881 127.31 47.4319 126.74C47.3824 126.173 47.2359 125.629 46.999 125.11C46.7729 124.589 46.4548 124.112 46.062 123.68C45.6691 123.248 45.2149 122.87 44.6925 122.541Z" fill="#F3EEE8"/>
<path d="M31.7741 111.139L30.6455 116.396L30.6288 116.401C29.9109 115.909 29.1811 115.687 28.4452 115.731C27.7092 115.774 26.9938 116.122 26.3099 116.775C25.9369 117.131 25.6517 117.511 25.4489 117.91C25.2462 118.308 25.137 118.726 25.1102 119.162C25.0891 119.592 25.1779 120.047 25.3823 120.522C25.5923 120.991 25.9129 121.462 26.3551 121.926L29.1382 124.842L37.3618 116.995L36.4018 115.989L33.2649 118.982L31.7979 117.445L32.9337 112.355L31.7741 111.139ZM29.1051 122.952L27.4061 121.171C26.8668 120.606 26.582 120.025 26.5512 119.449C26.5261 118.869 26.7707 118.333 27.2851 117.842C27.7825 117.367 28.3402 117.148 28.9415 117.19C29.5428 117.232 30.1536 117.578 30.7739 118.228L32.338 119.867L29.1051 122.952Z" fill="#F3EEE8"/>
<path d="M26.1863 102.182C25.808 101.49 25.3288 100.906 24.7449 100.423C24.1647 99.9481 23.5335 99.6075 22.855 99.4084C22.1765 99.2094 21.4507 99.1519 20.6707 99.2397C19.9014 99.3306 19.1378 99.5786 18.3904 99.9869C17.65 100.391 17.0287 100.9 16.5297 101.502C16.0412 102.107 15.6975 102.749 15.4984 103.427C15.2994 104.106 15.245 104.821 15.3315 105.566C15.4218 106.318 15.6542 107.037 16.0325 107.729C16.4333 108.463 16.9344 109.07 17.5358 109.552C18.1409 110.04 18.7858 110.374 19.4743 110.558C20.1628 110.743 20.8811 110.787 21.6398 110.693C22.3986 110.599 23.1273 110.352 23.8403 109.962C24.5533 109.573 25.1615 109.089 25.6506 108.502C26.1397 107.914 26.4909 107.286 26.7074 106.607C26.924 105.928 26.9921 105.205 26.908 104.432C26.8277 103.666 26.5871 102.916 26.1863 102.182ZM25.0208 102.819C25.3205 103.367 25.4948 103.931 25.5438 104.509C25.5928 105.088 25.5358 105.635 25.3554 106.152C25.1818 106.666 24.909 107.144 24.5264 107.585C24.1476 108.032 23.689 108.398 23.1474 108.694C22.7223 108.926 22.281 109.096 21.8196 109.197C21.3652 109.294 20.915 109.317 20.4729 109.274C20.0308 109.231 19.6074 109.124 19.2026 108.953C18.7978 108.782 18.4255 108.541 18.0748 108.225C17.7311 107.905 17.4378 107.531 17.1981 107.093C16.9209 106.585 16.7509 106.046 16.6957 105.489C16.6404 104.931 16.6906 104.388 16.8536 103.871C17.0166 103.355 17.2819 102.863 17.6638 102.405C18.0526 101.943 18.5212 101.562 19.0834 101.255C19.6456 100.948 20.2259 100.756 20.8176 100.682C21.4161 100.604 21.9735 100.647 22.4961 100.789C23.0187 100.93 23.5034 101.182 23.9425 101.53C24.3817 101.877 24.7436 102.311 25.0208 102.819Z" fill="#F3EEE8"/>
<path d="M21.8521 92.1801L20.0961 85.3878L18.8556 85.7085L20.2636 91.1544L10.4987 93.679L10.8468 95.0254L21.8521 92.1801Z" fill="#F3EEE8"/>
<path d="M19.5872 80.599L19.2828 73.59L18.0028 73.6456L18.2468 79.2653L8.1704 79.7029L8.23074 81.0923L19.5872 80.599Z" fill="#F3EEE8"/>
<path d="M21.3402 60.5604L22.4838 57.3104C23.0777 55.6228 23.0633 54.1104 22.4258 52.768C21.7958 51.4282 20.6824 50.4733 19.0832 49.9106C18.3021 49.6357 17.5258 49.5116 16.7692 49.5435C16.0126 49.5754 15.3154 49.7442 14.6778 50.0499C14.0376 50.363 13.4617 50.8229 12.9526 51.4223C12.441 52.029 12.0386 52.7488 11.7456 53.5815L10.6175 56.7873L21.3402 60.5604ZM20.608 58.8285L12.273 55.8956L12.9472 53.9795C13.2351 53.1615 13.676 52.4968 14.2528 51.9874C14.8295 51.4781 15.497 51.1581 16.2553 51.0274C17.011 50.904 17.7954 50.9813 18.6061 51.2666C19.004 51.4066 19.3691 51.593 19.6991 51.8085C20.0364 52.0266 20.3214 52.276 20.5639 52.5518C20.8138 52.8302 21.0138 53.1325 21.1762 53.4712C21.3386 53.81 21.4512 54.1726 21.5118 54.5418C21.5798 54.9135 21.5905 55.3066 21.5441 55.7209C21.5051 56.1378 21.4093 56.5513 21.2614 56.9714L20.608 58.8285Z" fill="#F3EEE8"/>
<path d="M29.8654 43.1265C30.3161 42.4788 30.6245 41.7892 30.7951 41.0514C30.9613 40.32 30.9842 39.6031 30.8593 38.9072C30.7344 38.2112 30.4617 37.5361 30.0348 36.8775C29.6099 36.2297 29.0469 35.6572 28.3479 35.1709C27.6553 34.6891 26.9228 34.3603 26.1612 34.1827C25.4017 34.0159 24.6739 33.995 23.9779 34.1199C23.2819 34.2448 22.6177 34.5155 21.9898 34.9257C21.3574 35.3423 20.8181 35.8712 20.3675 36.5189C19.8901 37.2052 19.5702 37.9248 19.4079 38.678C19.2412 39.4375 19.2311 40.1634 19.3733 40.8619C19.5155 41.5604 19.7971 42.2226 20.2201 42.8595C20.6431 43.4964 21.1893 44.0382 21.8563 44.5022C22.5233 44.9662 23.2276 45.2944 23.9718 45.4695C24.7161 45.6446 25.4349 45.6784 26.1393 45.5688C26.8436 45.4593 27.5206 45.1974 28.1748 44.777C28.8245 44.3629 29.3881 43.8128 29.8654 43.1265ZM28.7752 42.3681C28.4183 42.8811 27.9919 43.2888 27.4961 43.591C27.0003 43.8933 26.485 44.0868 25.9419 44.1562C25.4051 44.2301 24.8552 44.1997 24.2903 44.0541C23.7209 43.915 23.1883 43.6682 22.6817 43.3157C22.2841 43.0391 21.935 42.7201 21.6388 42.3523C21.3491 41.989 21.1272 41.5966 20.9685 41.1817C20.8099 40.7668 20.7165 40.3402 20.6883 39.9018C20.6602 39.4635 20.7101 39.0224 20.8361 38.5676C20.9686 38.1173 21.1722 37.6879 21.4577 37.2774C21.7879 36.8028 22.1944 36.41 22.6685 36.1116C23.1425 35.8133 23.6514 35.6153 24.1862 35.5305C24.721 35.4458 25.2798 35.4634 25.8601 35.6006C26.4467 35.7422 26.9966 35.9915 27.5225 36.3574C28.0484 36.7232 28.4797 37.1565 28.8102 37.6529C29.147 38.1537 29.3578 38.6715 29.4643 39.2024C29.5708 39.7333 29.5621 40.2793 29.4472 40.8275C29.3323 41.3757 29.1054 41.8935 28.7752 42.3681Z" fill="#F3EEE8"/>
<path d="M39.8827 17.8036L43.2124 26.7265L43.1876 26.7456L35.6112 21.0919L34.4165 22.0117L37.9175 30.7731L37.8927 30.7922L30.1388 25.3048L28.9564 26.2151L38.7691 33.0063L39.8338 32.1866L36.2641 23.1823L36.2889 23.1633L44.0496 28.9412L45.1144 28.1215L41.059 16.8981L39.8827 17.8036Z" fill="#F3EEE8"/>
<path d="M55.4241 10.9507L58.5854 19.4356L58.5561 19.4465L49.3917 13.1983L48.1032 13.6784L52.072 24.3302L53.3751 23.8447L50.2464 15.4477L50.2757 15.4368L59.3709 21.6107L60.6959 21.117L56.7272 10.4652L55.4241 10.9507Z" fill="#F3EEE8"/>
<path d="M75.659 19.3875C75.8231 19.3867 75.9792 19.3468 76.1194 19.268C76.2597 19.1892 76.3685 19.0715 76.4537 18.9305C76.5312 18.7895 76.5773 18.6408 76.5765 18.4767C76.5753 18.2268 76.4805 18.0085 76.2999 17.8296C76.1194 17.6586 75.9002 17.5659 75.6502 17.5672C75.3846 17.5684 75.1663 17.6633 74.9875 17.836C74.8086 18.0166 74.7238 18.2357 74.725 18.4857C74.7262 18.7357 74.8132 18.954 74.9937 19.125C75.1743 19.3039 75.3934 19.3887 75.659 19.3875Z" fill="#F3EEE8"/>
<path d="M94.0042 22.424C94.3744 22.5485 94.7497 22.6336 95.1325 22.6717C95.508 22.7073 95.8761 22.691 96.237 22.6228C96.5979 22.5547 96.9342 22.437 97.2435 22.2773C97.5453 22.1151 97.8177 21.8935 98.0631 21.6051C98.3085 21.3167 98.4972 20.9763 98.6267 20.5913C98.7662 20.1766 98.8241 19.7839 98.8004 19.4133C98.7502 18.8029 98.4431 18.1968 97.8864 17.5974C97.6474 17.3521 97.1471 16.9036 96.3757 16.2566L96.3707 16.2468L96.3633 16.2443L96.3559 16.2418L96.351 16.2319L96.3436 16.2294L96.3387 16.2195C95.6608 15.6617 95.2222 15.2504 95.0228 14.9855C94.6536 14.5151 94.5486 14.0429 94.7204 13.5567C94.8301 13.2309 95.0136 12.9794 95.2784 12.8047C95.5358 12.6276 95.8326 12.5296 96.1538 12.5058C96.475 12.4819 96.8134 12.5298 97.154 12.6444C97.5686 12.7839 97.9682 13.0172 98.3675 13.3494C98.7668 13.6815 99.114 14.0951 99.4215 14.5777L100.558 13.8224C100.176 13.2407 99.7329 12.7454 99.2301 12.329C98.7174 11.9174 98.1673 11.617 97.5749 11.4177C96.9677 11.2134 96.37 11.1525 95.7818 11.2349C95.1936 11.3172 94.6791 11.5233 94.2434 11.8631C93.8076 12.2028 93.505 12.6368 93.3282 13.1625C93.241 13.4217 93.1884 13.676 93.1778 13.928C93.1672 14.1799 93.1814 14.4073 93.2278 14.6125C93.2717 14.825 93.3502 15.0328 93.4731 15.2555C93.596 15.4782 93.7215 15.6687 93.847 15.8346C93.9725 16.0005 94.1351 16.1788 94.3396 16.3795C94.5441 16.5802 94.7264 16.7487 94.8867 16.885C95.0469 17.0213 95.2465 17.1874 95.4856 17.3832L95.4979 17.3956L95.5053 17.3981L95.5127 17.4006L95.5177 17.4105L95.5251 17.413L95.53 17.4229L95.5374 17.4254L95.5448 17.4279L95.5497 17.4378L95.5571 17.4402L95.5645 17.4427L95.5694 17.4526L95.5768 17.4551L95.5817 17.465L95.5891 17.4675L95.5966 17.47L95.6015 17.4799L95.6089 17.4824L95.6138 17.4923L95.6212 17.4948L95.6286 17.4973L95.6335 17.5072L95.6409 17.5097L95.6483 17.5121L95.6532 17.522L95.6606 17.5245L95.6656 17.5344L95.673 17.5369L95.6804 17.5394L95.6853 17.5493C96.3311 18.0798 96.7574 18.4787 96.9617 18.7535C97.2989 19.2214 97.3839 19.7281 97.1996 20.276C97.0277 20.7869 96.6859 21.1171 96.1864 21.2787C95.6869 21.4404 95.1064 21.4017 94.44 21.1776C93.892 20.9932 93.3913 20.6929 92.9404 20.2692C92.4895 19.8455 92.1499 19.3356 91.9292 18.7421L90.7512 19.475C91.0802 20.2122 91.5257 20.8236 92.1 21.3218C92.6643 21.8249 93.3007 22.1873 94.0042 22.424Z" fill="#F3EEE8"/>
<path d="M106.954 28.7869C107.753 29.2923 108.566 29.5849 109.396 29.6474C110.221 29.7165 111.042 29.6166 111.846 29.3395L111.436 28.0445C110.051 28.509 108.8 28.3829 107.664 27.6645C107.255 27.4056 106.905 27.1105 106.62 26.7727C106.323 26.4374 106.098 26.0635 105.941 25.6685C105.784 25.2734 105.689 24.853 105.666 24.4223C105.643 23.9915 105.695 23.5438 105.827 23.0725C105.954 22.6077 106.169 22.1518 106.453 21.7028C106.92 20.9634 107.473 20.3974 108.127 20.0068C108.774 19.612 109.474 19.4262 110.224 19.4385C110.97 19.4575 111.702 19.6892 112.421 20.1445C112.969 20.4911 113.412 20.9465 113.748 21.5107C114.084 22.0748 114.295 22.707 114.372 23.4031L115.714 23.2257C115.634 22.5926 115.479 22.0046 115.231 21.46C114.984 20.9154 114.685 20.4392 114.335 20.0423C113.981 19.652 113.58 19.3061 113.131 19.0221C112.524 18.6378 111.915 18.3728 111.296 18.2121C110.672 18.058 110.077 18.0051 109.513 18.0641C108.938 18.1256 108.393 18.2708 107.87 18.5131C107.34 18.7512 106.854 19.0815 106.408 19.4931C105.963 19.9048 105.567 20.3846 105.225 20.926C104.836 21.54 104.556 22.1579 104.391 22.7839C104.222 23.4165 104.169 24.0116 104.224 24.5825C104.273 25.1492 104.418 25.6941 104.653 26.213C104.878 26.7343 105.195 27.2122 105.587 27.6449C105.979 28.0777 106.432 28.457 106.954 28.7869Z" fill="#F3EEE8"/>
<path d="M119.843 40.2191L120.984 34.9654L121 34.9603C121.717 35.454 122.446 35.6772 123.182 35.6353C123.918 35.5934 124.635 35.247 125.32 34.596C125.694 34.2409 125.98 33.8614 126.183 33.4632C126.387 33.065 126.497 32.6479 126.525 32.212C126.547 31.7816 126.459 31.3262 126.256 30.8512C126.047 30.3817 125.728 29.9093 125.286 29.4448L122.51 26.5221L114.269 34.351L115.226 35.3592L118.37 32.3729L119.834 33.9136L118.686 39.0013L119.843 40.2191ZM122.539 28.4127L124.234 30.197C124.772 30.7634 125.055 31.3454 125.085 31.9208C125.108 32.5017 124.863 33.0369 124.347 33.5266C123.849 34.0001 123.291 34.2178 122.689 34.1748C122.088 34.1317 121.478 33.7845 120.859 33.1331L119.299 31.4905L122.539 28.4127Z" fill="#F3EEE8"/>
<path d="M125.409 49.1876C125.786 49.8809 126.264 50.4659 126.846 50.9495C127.426 51.4261 128.056 51.7682 128.734 51.9688C129.412 52.1694 130.138 52.2286 130.918 52.1425C131.687 52.0533 132.452 51.807 133.2 51.4005C133.941 50.9976 134.564 50.4905 135.064 49.8896C135.554 49.2856 135.899 48.6445 136.1 47.9665C136.3 47.2884 136.356 46.5734 136.271 45.8281C136.183 45.076 135.952 44.3568 135.575 43.6634C135.176 42.9289 134.677 42.3202 134.076 41.8373C133.472 41.3475 132.828 41.0129 132.14 40.8266C131.452 40.6403 130.734 40.5949 129.975 40.6872C129.216 40.7795 128.487 41.0246 127.773 41.4125C127.059 41.8005 126.449 42.2827 125.959 42.8693C125.469 43.4558 125.116 44.0831 124.898 44.7618C124.68 45.4404 124.61 46.163 124.692 46.9362C124.771 47.7027 125.01 48.4531 125.409 49.1876ZM126.576 48.5535C126.278 48.0043 126.105 47.4404 126.057 46.8617C126.009 46.283 126.067 45.7357 126.249 45.2191C126.424 44.7062 126.698 44.2284 127.081 43.7889C127.461 43.3424 127.92 42.9772 128.463 42.6825C128.888 42.4512 129.33 42.2823 129.792 42.1827C130.246 42.0868 130.697 42.0644 131.139 42.1088C131.581 42.1531 132.004 42.2611 132.408 42.4326C132.812 42.604 133.184 42.8466 133.534 43.1632C133.877 43.4836 134.17 43.8582 134.408 44.2976C134.684 44.8055 134.853 45.3451 134.907 45.9026C134.961 46.4601 134.91 47.0037 134.746 47.5197C134.581 48.0357 134.315 48.5273 133.932 48.9843C133.542 49.4451 133.073 49.8247 132.51 50.1305C131.947 50.4364 131.366 50.6275 130.774 50.7001C130.176 50.7765 129.618 50.7326 129.096 50.5896C128.574 50.4466 128.09 50.1939 127.651 49.8453C127.213 49.4967 126.852 49.0615 126.576 48.5535Z" fill="#F3EEE8"/>
<path d="M129.722 59.2003L131.463 65.9966L132.704 65.6787L131.308 60.2296L141.079 57.7272L140.734 56.3801L129.722 59.2003Z" fill="#F3EEE8"/>
<path d="M131.959 70.7865L132.247 77.7962L133.528 77.7435L133.296 72.1233L143.374 71.7085L143.316 70.3191L131.959 70.7865Z" fill="#F3EEE8"/>
<path d="M130.164 90.8199L129.013 94.0673C128.415 95.7536 128.426 97.266 129.061 98.6099C129.688 99.9511 130.799 100.909 132.397 101.475C133.177 101.752 133.953 101.877 134.71 101.847C135.467 101.817 136.164 101.65 136.803 101.346C137.444 101.034 138.021 100.575 138.531 99.9771C139.044 99.3715 139.448 98.6527 139.743 97.8206L140.878 94.6174L130.164 90.8199ZM130.892 92.5535L139.221 95.5053L138.542 97.4199C138.252 98.2372 137.81 98.901 137.232 99.409C136.654 99.917 135.986 100.235 135.227 100.364C134.471 100.486 133.687 100.407 132.877 100.12C132.48 99.979 132.115 99.7918 131.785 99.5755C131.449 99.3567 131.164 99.1067 130.922 98.8303C130.673 98.5513 130.474 98.2486 130.312 97.9095C130.15 97.5704 130.039 97.2075 129.979 96.8382C129.912 96.4663 129.902 96.0732 129.949 95.659C129.989 95.2421 130.086 94.8289 130.235 94.4091L130.892 92.5535Z" fill="#F3EEE8"/>
<path d="M121.595 108.235C121.143 108.881 120.833 109.57 120.661 110.308C120.493 111.039 120.468 111.755 120.591 112.452C120.715 113.148 120.986 113.824 121.411 114.483C121.835 115.132 122.396 115.706 123.094 116.194C123.786 116.677 124.518 117.008 125.279 117.187C126.038 117.355 126.766 117.378 127.462 117.255C128.158 117.131 128.823 116.862 129.452 116.453C130.085 116.038 130.626 115.511 131.078 114.864C131.557 114.179 131.878 113.46 132.042 112.707C132.211 111.948 132.222 111.222 132.082 110.523C131.941 109.824 131.661 109.161 131.24 108.524C130.818 107.886 130.273 107.343 129.607 106.877C128.941 106.412 128.238 106.082 127.494 105.905C126.75 105.728 126.031 105.693 125.327 105.801C124.622 105.909 123.944 106.169 123.289 106.588C122.639 107.001 122.074 107.55 121.595 108.235ZM122.683 108.996C123.042 108.483 123.469 108.077 123.965 107.776C124.462 107.474 124.977 107.282 125.521 107.214C126.058 107.141 126.608 107.173 127.172 107.32C127.741 107.46 128.273 107.708 128.779 108.062C129.176 108.339 129.524 108.659 129.82 109.028C130.109 109.392 130.33 109.784 130.487 110.2C130.645 110.615 130.738 111.042 130.765 111.48C130.792 111.919 130.741 112.36 130.614 112.814C130.48 113.264 130.276 113.693 129.989 114.103C129.658 114.577 129.251 114.969 128.776 115.266C128.301 115.563 127.792 115.76 127.257 115.844C126.722 115.927 126.163 115.908 125.583 115.77C124.997 115.627 124.448 115.376 123.922 115.009C123.397 114.642 122.967 114.208 122.638 113.711C122.302 113.209 122.092 112.691 121.987 112.16C121.882 111.629 121.892 111.083 122.008 110.535C122.124 109.987 122.352 109.469 122.683 108.996Z" fill="#F3EEE8"/>
<path d="M111.522 133.535L108.213 124.605L108.237 124.586L115.801 130.257L116.998 129.339L113.517 120.57L113.541 120.551L121.283 126.056L122.467 125.149L112.67 118.335L111.603 119.152L115.153 128.165L115.128 128.184L107.38 122.388L106.314 123.205L110.344 134.438L111.522 133.535Z" fill="#F3EEE8"/>
<path d="M95.967 140.353L92.8249 131.861L92.8542 131.85L102.004 138.119L103.294 137.642L99.3494 126.981L98.0452 127.464L101.155 135.868L101.125 135.879L92.0444 129.684L90.7182 130.175L94.6628 140.835L95.967 140.353Z" fill="#F3EEE8"/>
<path d="M75.7502 131.871C75.5862 131.871 75.43 131.911 75.2896 131.989C75.1492 132.068 75.0401 132.185 74.9545 132.326C74.8768 132.467 74.8303 132.615 74.8307 132.779C74.8313 133.029 74.9256 133.248 75.1058 133.427C75.2859 133.598 75.5049 133.692 75.7549 133.691C76.0205 133.69 76.239 133.596 76.4183 133.424C76.5975 133.244 76.6829 133.025 76.6822 132.775C76.6816 132.525 76.5951 132.306 76.415 132.135C76.2348 131.955 76.0159 131.87 75.7502 131.871Z" fill="#F3EEE8"/>
</svg>
